<svg width="970" height="181" viewBox="0 0 970 181" fill="none" xmlns="http://www.w3.org/2000/svg">
<g clip-path="url(#clip0_78_33)">
<path fill-rule="evenodd" clip-rule="evenodd" d="M487.684 106.635V151.057H471.205V106.325C471.205 95.2577 462.841 87.4489 448.859 87.4489C435.564 87.4489 424.078 97.1194 423.642 108.859V151.057H407.163V76.744H423.642V89.5174C429.384 80.4157 441.494 74.8823 453.478 74.8823C471.455 74.8823 487.684 86.8283 487.684 106.635ZM322.834 125.304C325.019 134.147 337.939 140.301 350.361 140.301C361.659 140.301 372.208 135.595 376.452 126.907L392.994 129.544C387.875 140.921 374.143 153.023 351.11 153.023C323.708 153.023 303.796 136.577 303.796 113.978C303.796 90.0863 328.015 74.8823 349.612 74.8823C378.013 74.8823 392.994 94.0683 392.994 110.565C392.994 112.272 392.869 115.323 392.557 116.771H330.075C328.264 116.771 326.454 117.185 325.143 118.115C322.647 119.874 322.21 122.666 322.834 125.304ZM375.891 106.221C375.329 95.3094 364.218 87.1386 349.425 87.1386C336.754 87.1386 324.769 95.1543 321.71 106.221H375.891ZM552.788 137.095L555.784 150.178C551.976 151.626 547.17 153.074 540.553 153.074C524.075 153.074 513.463 144.438 513.463 130.268V89.1554H495.674V76.8474H503.476C509.032 76.8474 513.526 73.124 513.526 68.4697V55.6963H530.004V76.7957H554.223V89.1037H530.004V129.493C530.004 136.319 535.373 139.318 541.739 139.318C545.36 139.318 549.292 138.439 552.788 137.095ZM279.827 126.907L296.368 129.544C291.187 140.921 275.52 153.023 254.485 153.023C227.082 153.023 207.171 136.577 207.171 113.978C207.171 91.3791 229.392 74.8823 252.986 74.8823C272.337 74.8823 287.879 83.984 294.495 98.5674L277.393 101.308C274.334 93.5511 264.909 87.604 252.799 87.604C238.568 87.604 223.961 97.1194 223.961 113.978C223.961 129.182 237.819 139.887 254.048 139.887C265.033 139.887 274.272 135.957 279.827 126.907ZM585.183 76.7957V151.057H568.767V76.7957H585.183ZM73.4678 48.3011L124.902 151.057H105.864L94.316 127.217C86.3263 124.269 74.7786 122.563 62.7317 122.563C50.6847 122.563 39.1371 124.269 31.1474 127.217L19.5997 151.057H0.561768L51.9955 48.3011H73.4678ZM86.888 112.013L67.9125 72.8654C66.9762 70.9003 65.0412 69.7626 62.7317 69.7626C60.4845 69.7626 58.5495 70.9003 57.6132 72.8654L38.5753 112.013C45.5663 110.462 54.2426 109.531 62.7317 109.531C71.2207 109.531 79.9595 110.513 86.888 112.013ZM710.21 48.3011V151.057H693.731V48.3011H710.21Z" fill="white"/>
<path d="M584.06 63.35C579.066 66.608 571.826 65.8323 567.956 61.7469C564.023 57.6097 564.959 51.6109 569.953 48.4046C574.947 45.1466 582.125 45.9223 585.995 50.0594C589.927 54.1449 589.053 60.1437 584.06 63.35Z" fill="white"/>
<path fill-rule="evenodd" clip-rule="evenodd" d="M199.368 130.061C199.368 141.749 188.507 153.023 163.851 153.023C142.691 153.023 128.647 144.024 126.15 129.441L141.942 126.907C143.565 135.336 152.116 140.921 164.663 140.921C175.337 140.921 182.203 137.043 182.203 130.372C182.203 124.838 178.27 121.891 170.156 120.236L151.992 116.616C140.506 114.237 129.833 107.928 129.833 96.8091C129.833 84.4494 142.816 74.8823 162.291 74.8823C180.767 74.8823 193.313 82.0189 196.684 94.3786L180.767 96.8609C178.77 90.3449 172.153 86.7766 162.416 86.7766C152.117 86.7766 146.686 91.1723 146.686 95.7232C146.686 100.533 150.931 103.739 159.607 105.497L178.582 109.376C192.876 112.272 199.243 119.874 199.368 130.061ZM676.815 105.963V135.026C676.815 139.68 678.251 146.403 680.373 151.057H663.582C661.897 147.799 660.961 140.611 660.961 137.043C653.72 146.662 641.299 153.023 629.439 153.023C609.465 153.023 600.539 141.697 600.539 131.561C600.539 119.822 609.465 112.013 624.508 110.255L651.598 107.462C654.532 107.152 657.216 105.963 658.339 104.359C659.65 102.601 659.9 100.688 659.4 98.5157C657.84 92.2583 650.1 87.242 639.551 87.242C628.565 87.242 620.763 93.1892 618.016 99.4466L601.288 96.8091C607.592 83.0531 622.136 74.8823 640.05 74.8823C662.646 74.8823 676.753 87.7074 676.753 105.963H676.815ZM660.649 117.547L628.378 121.322C622.51 121.942 617.829 125.769 617.829 130.785C617.829 135.905 623.01 140.611 631.374 140.611C641.736 140.611 658.339 133.061 660.649 117.547ZM828.745 75.8132L758.148 48.3529C759.147 46.9049 760.083 45.4569 761.144 44.0089L825.187 60.5574C826.997 61.0746 828.869 60.9194 829.868 60.1954C830.867 59.4197 831.241 58.3337 831.241 56.9891L831.99 1.44801C833.988 1.0343 835.923 0.724013 837.983 0.413727L847.72 64.3843C848.344 67.9526 847.221 72.3483 843.975 74.6754C839.044 78.0886 832.802 77.4163 828.745 75.8132ZM866.696 64.3843L876.496 0.413727C878.493 0.724013 880.49 1.0343 882.425 1.44801L883.237 56.9891C883.237 58.3337 883.549 59.4197 884.548 60.1954C885.546 60.9194 887.481 61.0746 889.229 60.5574L953.334 44.0606C954.333 45.4569 955.394 46.9049 956.33 48.4046L885.796 75.8649C881.614 77.4163 875.247 78.0886 870.441 74.6754C867.133 72.2966 866.009 67.9526 866.696 64.3843ZM908.392 109.065L944.221 150.954C942.286 152.919 940.164 154.833 938.041 156.643L884.86 109.738C881.489 106.738 880.366 102.601 881.926 98.6709C883.424 94.7406 887.294 91.948 892.225 91.1723L968.502 79.1229C968.876 81.6569 969.251 84.1909 969.376 86.7766L910.701 103.222C909.266 103.584 908.205 104.463 907.768 105.652C907.331 106.79 907.518 108.083 908.392 109.065ZM868.943 119.512L906.332 175.725C901.463 177.639 896.407 179.397 891.164 180.741L865.385 152.143C863.45 149.92 860.454 148.73 857.145 148.73C853.9 148.73 850.904 149.92 848.969 152.143L823.189 180.741C818.008 179.397 812.89 177.69 808.021 175.725L845.411 119.46C847.783 115.84 852.152 113.72 857.145 113.72C862.139 113.72 866.571 115.892 868.943 119.512ZM829.494 109.789L776.312 156.643C774.127 154.884 772.13 152.919 770.195 150.954L806.024 109.065C806.835 108.083 807.085 106.842 806.648 105.652C806.211 104.463 805.15 103.584 803.714 103.222L744.978 86.7766C745.165 84.1909 745.477 81.6051 745.914 79.1229L822.191 91.224C827.122 91.9997 830.929 94.7923 832.49 98.7226C834.05 102.601 832.864 106.738 829.494 109.789Z" fill="white"/>
</g>
<defs>
<clipPath id="clip0_78_33">
<rect width="970" height="181" fill="white"/>
</clipPath>
</defs>
</svg>
