<svg width="87" height="45" viewBox="0 0 87 45" fill="none" xmlns="http://www.w3.org/2000/svg">
<mask id="mask0_82_16" style="mask-type:luminance" maskUnits="userSpaceOnUse" x="0" y="0" width="87" height="45">
<path d="M87 0H0V45H87V0Z" fill="white"/>
</mask>
<g mask="url(#mask0_82_16)">
<path d="M87 0H0V45H87V0Z" fill="white"/>
<path d="M86.9177 0H0.0380859V45H86.9177V0Z" fill="#ED1C24"/>
<path d="M87 20.915H0V25.2853H87V20.915Z" fill="white"/>
<path fill-rule="evenodd" clip-rule="evenodd" d="M27.865 9.5156C28.5548 8.31 28.2592 7.1959 27.7665 7.1959C27.1752 7.1959 26.688 7.9709 26.5402 8.6006C26.7373 8.8428 27.0822 9.4671 27.865 9.5156ZM26.146 8.9397C26.4417 9.6178 27.4216 10.0538 27.6679 10.0538C26.7865 12.5672 24.6734 13.8697 24.6734 12.3735C24.6734 11.4047 25.6095 9.8546 26.146 8.9397ZM38.469 7.1474C38.7646 7.1474 38.7646 7.5349 38.6168 7.874C38.469 8.2131 36.7008 11.8837 36.7008 11.8837C36.1095 13.0893 35.0803 13.0893 35.0803 12.4165C35.0803 11.4047 37.0457 7.1474 38.469 7.1474ZM53.2446 3.62213C53.4909 6.0387 51.7227 8.5522 50.7427 8.5522C49.5657 8.5522 50.2008 5.69963 53.2446 3.62213ZM54.3778 11.2109C54.8705 11.2109 55.3577 12.0344 54.5256 13.676C53.8413 13.5306 53.2993 13.2884 53.25 12.4219C53.5402 11.6469 53.7373 11.2109 54.3778 11.2109ZM52.7573 12.9978C53.053 13.8213 54.1807 14.2518 54.1807 14.2518C53.2993 16.3778 52.511 17.0075 52.0183 17.0075C51.0384 17.0075 50.9891 15.5597 52.7573 12.9978ZM64.2427 11.6469C63.9471 12.2766 62.1296 15.705 62.1296 15.705C61.6369 16.7222 60.2136 17.4919 60.4599 16.3347C61.2482 13.0462 63.9964 10.0484 64.2427 11.6469ZM28.4563 9.5156C29.6333 9.3218 30.3723 8.4499 30.3723 8.4499C31.7957 6.5662 32.584 6.3724 33.3176 6.3724C35.1351 6.3724 34.5438 9.3702 33.219 9.3702C32.7263 9.3702 32.5292 7.7287 33.9581 7.7287C34.1059 7.4381 33.8595 7.1959 33.5639 7.1959C32.3376 7.1959 30.2245 11.1087 30.2245 12.5134C30.2245 13.24 30.6679 13.3853 30.9636 13.3853C31.407 13.3853 32.2391 13.4822 35.4307 8.1646C36.8048 6.2325 38.2774 5.89339 39.115 6.9106L39.4106 6.4262H41.0803L38.2829 12.0828C37.938 13.0032 38.6278 13.676 40.2975 10.4413H40.7902C38.8741 15.1776 35.4417 15.5166 36.126 13.2454C34.3084 15.2744 32.5402 15.0807 33.1314 12.3735C31.3139 15.5166 26.1132 15.9526 29.3541 9.86C28.8121 10.1022 28.2263 10.1022 28.2263 10.1022C27.6351 11.986 25.5767 14.6447 24.0548 14.6447C22.6807 14.6447 22.73 13.3423 22.73 13.0516C22.73 10.4413 25.5274 6.48 27.6898 6.48C28.8942 6.4747 29.042 8.0193 28.4563 9.5156ZM42.4161 6.4747H43.9873L43.084 8.2131H41.5128L42.4161 6.4747ZM53.4909 2.89554C56.584 1.20555 59.3322 3.62213 60.6077 4.44021C60.3121 4.73085 59.3322 6.1302 59.3322 6.1302C57.6624 5.11298 55.2592 2.74484 53.7865 3.47143C54.0822 5.69425 52.3632 9.1281 50.5457 9.1281C48.4818 9.1281 49.6643 5.21524 52.8997 3.22923C52.8997 3.22923 52.8504 2.98704 52.5055 2.98704C49.9052 2.98704 43.9161 11.2056 43.9161 15.6512C43.9161 17.1474 44.7975 17.5834 45.438 17.5834C46.7135 17.5834 49.5603 15.409 49.5603 12.169C49.5603 10.9149 47.9891 10.479 47.3541 14.0527C46.7628 14.0527 46.0292 14.4402 45.0931 15.7911C45.6844 11.9752 47.3541 10.4736 48.7774 10.4736C49.5165 10.4736 50.1022 10.7642 50.1022 12.212C50.1022 15.7857 46.6643 18.7352 44.6059 18.7352C42.8376 18.7352 41.5621 17.3358 41.5621 15.2099C41.5621 11.5285 46.9982 2.29274 52.2099 2.29274C52.949 2.30889 53.3212 2.68564 53.4909 2.89554ZM62.4252 4.92461C62.4252 4.92461 61.5384 6.0387 61.1989 6.8084C63.4106 7.0505 66.5475 6.1786 68.5621 1.92676C65.8139 5.50588 62.4252 4.92461 62.4252 4.92461ZM55.0621 13.5791C55.407 13.5791 55.8011 13.4338 55.8011 13.4338C57.865 7.2497 62.3322 2.22278 64.4891 2.22278C65.2719 2.22278 65.469 3.14312 64.834 4.49404L64.2427 4.63935C64.7354 3.52525 64.6862 2.94936 64.4398 2.94936C63.1643 2.94936 60.6624 6.4316 58.0073 12.4219C59.5292 11.3078 61.4453 9.4241 62.8194 7.0075C63.1643 6.9591 63.4599 6.8137 63.4599 6.8137C62.0858 9.4725 60.4654 11.1625 57.6187 13.4822C56.7373 16.0441 56.7865 17.0129 57.4216 17.0129C57.8157 17.0129 59.4362 14.6932 59.9727 13.5306C60.6625 12.1313 63.2628 9.1334 64.6369 10.9203L64.7847 10.3875H66.3559L63.6077 16.2378C63.3614 17.0613 64.2975 16.9644 65.6223 14.5479H66.115C64.1497 18.7997 61.1552 19.5748 61.5 17.2551C59.6333 19.381 58.2592 18.8482 58.5548 16.6738C56.5895 19.817 53.9398 19.4295 55.5603 14.2088C55.2154 14.3541 54.7774 14.2572 54.7774 14.2572C53.2062 17.9278 51.5365 18.7029 50.7537 18.7029C49.9216 18.7029 49.4781 17.831 49.4781 17.0613C49.4781 14.4994 52.4234 10.3929 54.3395 10.3929C55.9927 10.3875 55.5548 12.804 55.0621 13.5791ZM27.2683 2.21739C29.6442 2.21739 28.4891 5.53817 27.4216 5.53817C26.5019 5.53817 26.6552 3.9935 28.1497 3.8428C28.2592 3.43375 28.0128 2.9386 27.5749 2.9386C25.3906 2.9386 20.146 10.1022 20.146 14.4456C20.146 17.0882 22.1771 17.9171 23.5183 17.9171C25.9325 17.9171 30.2957 15.6189 33.8595 15.6189C37.5767 15.6189 39.2245 17.3143 40.6424 18.7136C38.1898 17.3197 35.6223 17.0936 34.4344 18.7136C33.3997 16.9429 31.5657 17.0183 30.9854 17.0183C27.3449 17.0183 25.1606 18.789 22.0183 18.789C19.2592 18.789 17.7646 16.6738 17.7646 14.6017C17.7646 8.1754 24.2792 2.21739 27.2683 2.21739Z" fill="white"/>
<path fill-rule="evenodd" clip-rule="evenodd" d="M64.7409 31.9159L64.8833 31.9374C64.8833 31.9374 64.9763 31.9751 64.9709 31.9159C64.9709 31.8567 64.6807 28.0677 64.6807 28.0677C64.6807 28.0677 62.469 26.959 59.7866 27.0182C57.1041 27.0774 54.2245 28.9665 54.6077 32.0343C54.9909 35.1021 57.3997 36.3131 57.6461 36.4584C58.3085 36.8513 61.2263 37.7394 60.8048 39.2302C60.3833 40.7264 57.8431 40.9417 55.4015 37.4972C55.4015 37.4972 55.084 37.1419 55.084 37.5348V41.3508C55.084 41.3508 57.2574 43.5628 61.5548 42.9062C65.8523 42.2496 65.7701 37.8954 65.7701 37.8954C65.7701 37.8954 66.0384 34.1979 61.7409 32.4164C58.7574 31.1785 59.1515 30.1882 59.4471 29.8438C59.7428 29.5101 61.5001 28.3153 64.7409 31.9159Z" fill="white"/>
<path fill-rule="evenodd" clip-rule="evenodd" d="M69.8051 27.1475H69.9201L77.7595 41.2379C77.7595 41.2379 78.1646 42.1152 79.2157 42.2766C79.2157 42.2766 79.473 42.2605 79.4566 42.4704C79.4401 42.6803 79.2759 42.6157 79.2759 42.6157H73.4347C73.4347 42.6157 71.9675 42.8687 70.9821 41.0818C69.9967 39.3003 68.7431 36.9537 68.7431 36.9537C68.7431 36.9537 68.4365 36.2217 67.5441 36.2433C66.6518 36.2702 66.2358 37.0183 66.2358 37.0183L66.077 37.3735C66.077 37.3735 65.9949 37.5942 65.8087 37.5457C65.6226 37.4919 65.754 37.2982 65.754 37.2982L69.8051 27.1475Z" fill="white"/>
<path fill-rule="evenodd" clip-rule="evenodd" d="M8.43057 42.6051V29.3382C8.43057 29.3382 8.38677 28.0196 7.56557 27.8904C7.56557 27.8904 7.19877 27.9604 7.17147 27.6966C7.17147 27.6966 7.15507 27.5459 7.29737 27.5298H19.3193L20.0857 30.8721C20.0857 30.8721 20.1405 30.9851 19.9707 30.9959C19.801 31.012 19.801 30.969 19.7737 30.8721C19.7463 30.7752 18.9251 28.547 15.9525 28.5309L14.0583 28.5039V34.4458H17.4689C17.4689 34.4458 18.5036 34.3759 18.6295 33.3855C18.6295 33.3855 18.5857 32.9119 18.7445 32.885C18.7445 32.885 18.9416 32.815 18.9853 33.0249C19.0291 33.2348 20.0912 37.885 20.0912 37.885C20.0912 37.885 20.135 38.0088 20.02 38.0411C19.9051 38.068 19.8503 38.0411 19.8065 37.9011C19.7627 37.7612 19.0565 35.4953 15.6843 35.4953H14.0693V40.8667C14.0693 40.8667 14.1733 41.9055 14.9999 42.223C15.4926 42.4114 15.4215 42.5997 15.2791 42.6159L8.43057 42.6051Z" fill="white"/>
<path fill-rule="evenodd" clip-rule="evenodd" d="M21.6298 42.6051V29.3382C21.6298 29.3382 21.586 28.0196 20.7649 27.8904C20.7649 27.8904 20.3981 27.9604 20.3707 27.6966C20.3707 27.6966 20.3543 27.5459 20.4966 27.5298H32.5185L33.2849 30.8721C33.2849 30.8721 33.3397 30.9851 33.17 30.9959C33.0003 31.012 33.0003 30.969 32.9729 30.8721C32.9455 30.7752 32.1243 28.547 29.1517 28.5309L27.2521 28.5039V34.4458H30.6627C30.6627 34.4458 31.6973 34.3759 31.8233 33.3855C31.8233 33.3855 31.7795 32.9119 31.9382 32.885C31.9382 32.885 32.1353 32.815 32.1791 33.0249C32.2229 33.2348 33.2849 37.885 33.2849 37.885C33.2849 37.885 33.3287 38.0088 33.2138 38.0411C33.0988 38.068 33.0441 38.0411 33.0003 37.9011C32.9565 37.7612 32.2503 35.4953 28.878 35.4953H27.263V41.6256H29.0915C29.0915 41.6256 32.1408 41.6256 32.9619 39.2144C32.9619 39.2144 33.0222 39.096 33.1426 39.1067C33.263 39.1229 33.2521 39.2252 33.2192 39.3328C33.1919 39.4351 32.4747 42.6105 32.4747 42.6105L21.6298 42.6051Z" fill="white"/>
<path fill-rule="evenodd" clip-rule="evenodd" d="M35.2393 42.6159L35.2502 29.5104C35.2502 29.5104 35.1462 27.9226 34.1444 27.8473C34.1444 27.8473 33.9473 27.8473 33.9199 27.702C33.8926 27.5567 34.013 27.5567 34.1444 27.5567H40.2977C40.2977 27.5567 41.4583 27.5297 41.9564 28.3963L44.4802 32.9603C44.4802 32.9603 44.7593 33.6385 45.4984 33.59C46.117 33.5523 46.2758 33.041 46.3196 32.7827L47.1188 27.7881C47.1188 27.7881 47.1791 27.5513 47.398 27.5513H53.3816V40.8667C53.3816 40.8667 53.6225 42.1046 54.4218 42.266C54.4218 42.266 54.701 42.2445 54.7229 42.406C54.7448 42.562 54.6462 42.6428 54.5039 42.6428H47.8469L47.825 32.336L43.544 43.0357H43.4893L37.3743 32.2176V40.6891C37.3743 40.6891 37.2703 41.8893 38.4637 42.2445C38.4637 42.2445 38.7156 42.3037 38.7156 42.4598C38.7156 42.6159 38.5842 42.6159 38.5842 42.6159H35.2393Z" fill="white"/>
</g>
</svg>
