<svg width="354" height="79" viewBox="0 0 354 79" fill="none" xmlns="http://www.w3.org/2000/svg">
<g clip-path="url(#clip0_81_2)">
<path fill-rule="evenodd" clip-rule="evenodd" d="M136.272 21.9597C148.049 21.9597 156.167 29.8826 156.167 42.6829V77.2826H149.695C142.949 77.2826 138.764 73.1838 138.764 66.5203V46.4154C138.764 39.7519 135.883 36.4774 130.738 36.4774C125.569 36.4774 121.933 39.9122 121.933 47.0107V77.2139H115.462C108.716 77.2139 104.531 73.0922 104.531 66.4516V46.3238C104.531 39.6832 101.809 36.3858 96.5496 36.3858C91.3128 36.3858 87.6768 39.8206 87.6768 46.942V77.1452H81.2279C74.4589 77.1452 70.2969 73.0235 70.2969 66.36V23.4481H87.4481V30.3406C89.8721 25.7838 96.0923 21.8223 103.387 21.8223C110.682 21.8223 117.291 24.8678 119.647 30.4093C122.139 25.3945 128.222 21.8223 136.272 21.8223V21.9597ZM55.1124 23.4481H61.264V77.1223H44.4787V69.1994C41.5973 75.2446 41.2085 78.771 26.4814 78.771C11.7543 78.771 0.0686035 67.1157 0.0686035 50.2852C0.0686035 33.4548 11.8229 21.7994 27.6248 21.7994C35.5829 21.7994 41.4372 25.0052 44.776 30.6154C46.1481 25.9212 49.7841 23.4481 55.1124 23.4481ZM43.8612 50.3539C43.8612 42.202 38.3271 36.4545 30.6663 36.4545C22.9826 36.4545 17.6771 42.202 17.6771 50.3539C17.6771 58.5058 22.9826 64.2533 30.6663 64.2533C38.5558 64.2533 43.8612 58.5058 43.8612 50.3539ZM353.954 23.4481L331.406 77.1223H311.511L288.963 23.4481H300.191C306.64 23.4481 310.139 27.0432 312.334 32.8594L321.596 57.8417L330.857 32.8594C332.984 27.0432 336.552 23.4481 343.023 23.4481H353.954Z" fill="white"/>
<path d="M199.502 21.8223C192.596 21.8223 185.69 24.7991 182.58 30.4093V10.9684C182.58 4.32782 178.418 0.206085 171.649 0.206085H165.2V77.1452H181.985V69.2223C184.867 75.2675 192.002 78.771 199.96 78.771C214.321 78.771 226.395 66.9783 226.395 50.3081C226.395 33.6151 214.252 21.8223 199.502 21.8223ZM195.798 64.2762C187.908 64.2762 182.58 58.5287 182.58 50.3768C182.58 42.2249 187.908 36.4774 195.798 36.4774C203.687 36.4774 208.764 42.2249 208.764 50.3768C208.764 58.5287 203.459 64.2762 195.798 64.2762Z" fill="white"/>
<path d="M261.315 21.8223C244.53 21.8223 232.616 33.409 232.616 49.9875C232.616 66.589 244.301 78.9313 262.161 78.9313C279.998 78.9313 284.183 73.9852 287.522 68.169L282.125 62.6275C279.312 59.7881 275.745 59.8568 272.543 61.8948C270.508 63.2229 267.238 64.7342 262.824 64.7342C255.461 64.7342 250.841 60.8415 249.927 55.1626H288.734C291.09 35.5615 279.701 21.7307 261.247 21.7307L261.315 21.8223ZM249.927 43.8049C250.841 38.7215 255.301 35.0577 261.384 35.0577C267.467 35.0577 271.171 38.7215 272.315 43.8049H249.927Z" fill="white"/>
</g>
<defs>
<clipPath id="clip0_81_2">
<rect width="354" height="79" fill="white"/>
</clipPath>
</defs>
</svg>
