<svg width="136" height="31" viewBox="0 0 136 31" fill="none" xmlns="http://www.w3.org/2000/svg">
<mask id="mask0_78_2" style="mask-type:luminance" maskUnits="userSpaceOnUse" x="0" y="0" width="136" height="31">
<path d="M135.18 0H0.179688V31H135.18V0Z" fill="white"/>
</mask>
<g mask="url(#mask0_78_2)">
<mask id="mask1_78_2" style="mask-type:luminance" maskUnits="userSpaceOnUse" x="1" y="1" width="134" height="31">
<path d="M135 1H1V31.4125H135V1Z" fill="white"/>
</mask>
<g mask="url(#mask1_78_2)">
<mask id="mask2_78_2" style="mask-type:luminance" maskUnits="userSpaceOnUse" x="1" y="1" width="30" height="30">
<path d="M30.9485 1H1V30.6979H30.9485V1Z" fill="white"/>
</mask>
<g mask="url(#mask2_78_2)">
<path d="M30.8022 18.1832C31.647 10.9933 26.7841 3.76319 18.9566 2.46878C15.727 1.91954 12.3079 2.53462 9.47007 4.1695C8.28165 4.89219 9.09748 4.38952 8.14354 5.03352C1.93967 9.519 2.63345 17.6404 7.98455 21.1029C4.88341 19.5644 2.87113 16.4938 2.49373 13.1549C2.2175 9.96867 3.47819 6.7246 6.25491 4.47303C16.7644 -4.18316 32.6298 4.44735 30.8038 18.1832H30.8022Z" fill="url(#paint0_linear_78_2)"/>
<path d="M30.4071 19.5596C32.2636 9.29737 22.0046 1.02823 12.2708 4.98052C11.9577 5.12345 11.5032 5.30814 11.2109 5.47837C3.50064 9.55272 3.87483 18.0917 9.0846 21.5654C8.84692 21.4819 8.61405 21.3904 8.38761 21.2908C2.56435 17.6533 2.07935 8.52651 9.95343 4.39595C12.6563 2.93451 15.8521 2.40936 18.8826 2.91524C27.0233 4.26265 31.8605 12.0661 30.4071 19.5596Z" fill="url(#paint1_linear_78_2)"/>
<path d="M30.1454 20.0735C30.9805 15.4386 29.0276 10.4971 24.918 7.7701C19.9892 4.41202 13.0033 5.21982 9.03163 9.68764C6.02044 13.0939 5.99635 18.5269 9.43794 21.6811C9.3448 21.6521 9.25326 21.6216 9.16172 21.5911C4.44979 18.2427 4.38395 11.2647 8.83731 7.57739C9.36407 7.09078 10.8352 6.06617 11.9192 5.61329C14.3218 4.50838 17.0712 4.17112 19.6696 4.65131C27.1085 6.01157 31.4896 13.1758 30.1454 20.0719V20.0735Z" fill="url(#paint2_linear_78_2)"/>
<path d="M29.8546 20.7495C30.9836 15.0724 27.4425 9.13031 21.4233 7.71706C14.0631 5.91998 6.5311 12.1094 8.51287 19.2977C8.74734 20.1569 9.1119 20.9808 9.59369 21.7276C9.55033 21.7147 9.50697 21.7019 9.46521 21.689C5.86944 18.0627 6.29181 11.9938 10.6857 8.67904C14.622 5.54418 20.5095 5.3081 24.6786 8.12979C28.9039 10.8744 30.8359 16.0007 29.8562 20.7479L29.8546 20.7495Z" fill="url(#paint3_linear_78_2)"/>
<path d="M29.8209 19.5354C29.7695 10.3091 19.2311 5.94729 12.7558 11.6983C9.95665 14.1747 8.70559 18.1302 9.66275 21.7469C9.64187 21.742 9.621 21.7356 9.60012 21.7292C7.32446 17.7753 8.50806 13.0184 11.7521 10.4023C15.4266 7.29309 21.0121 7.01526 24.9725 9.75344C28.2615 11.9424 30.0024 15.7453 29.8225 19.5338L29.8209 19.5354Z" fill="url(#paint4_linear_78_2)"/>
<path d="M1.1463 13.5146C0.301558 20.7046 5.16444 27.9347 12.9919 29.2291C16.2215 29.7783 19.6406 29.1632 22.4784 27.5284C23.6668 26.8057 22.851 27.3083 23.8049 26.6643C30.0088 22.1789 29.315 14.0575 23.9639 10.595C27.065 12.1335 29.0773 15.2041 29.4547 18.5429C29.731 21.7292 28.4703 24.9733 25.6935 27.2248C15.1841 35.881 -0.681297 27.2505 1.14469 13.5146H1.1463Z" fill="url(#paint5_linear_78_2)"/>
<path d="M1.53974 12.1383C-0.316768 22.4005 9.94218 30.6696 19.676 26.7173C19.9891 26.5744 20.4436 26.3897 20.7359 26.2195C28.4462 22.1451 28.072 13.6062 22.8622 10.1324C23.0999 10.216 23.3328 10.3075 23.5592 10.4071C29.3825 14.0446 29.8675 23.1714 21.9934 27.3019C19.2905 28.7633 16.0946 29.2885 13.0642 28.7826C4.92352 27.4352 0.0863313 19.6318 1.53974 12.1383Z" fill="url(#paint6_linear_78_2)"/>
<path d="M1.80315 11.6244C0.968043 16.2593 2.92091 21.2009 7.03059 23.9278C11.9593 27.2859 18.9452 26.4781 22.9168 22.0103C25.928 18.604 25.9521 13.171 22.5105 10.0168C22.6036 10.0458 22.6952 10.0763 22.7867 10.1068C27.4987 13.4552 27.5645 20.4332 23.1111 24.1205C22.5844 24.6071 21.1134 25.6317 20.0294 26.0846C17.6268 27.1895 14.8773 27.5268 12.2789 27.0466C4.84004 25.6863 0.45895 18.5221 1.80315 11.626V11.6244Z" fill="url(#paint7_linear_78_2)"/>
<path d="M2.09223 10.9483C0.963231 16.6254 4.5044 22.5675 10.5235 23.9807C17.8837 25.7778 25.4157 19.5884 23.4339 12.4001C23.1995 11.5409 22.8349 10.717 22.3531 9.97021C22.3965 9.98306 22.4398 9.99591 22.4816 10.0088C26.0774 13.6351 25.655 19.704 21.2611 23.0188C17.3248 26.1536 11.4373 26.3897 7.26828 23.568C3.04297 20.8234 1.11098 15.6971 2.09063 10.9499L2.09223 10.9483Z" fill="url(#paint8_linear_78_2)"/>
<path d="M2.12756 12.1625C2.17895 21.3888 12.7174 25.7506 19.1927 19.9996C21.9919 17.5232 23.2429 13.5677 22.2858 9.95105C22.3066 9.95586 22.3275 9.96229 22.3484 9.96871C24.6241 13.9226 23.4405 18.6795 20.1964 21.2956C16.5219 24.4048 10.9364 24.6826 6.97599 21.9445C3.68696 19.7555 1.94608 15.9526 2.12595 12.1641L2.12756 12.1625Z" fill="url(#paint9_linear_78_2)"/>
</g>
<path d="M36.9497 25.1604V6.17139H38.9716V25.1604H36.9497ZM38.2782 8.0863V6.17139H48.9665V8.0863H38.2782ZM38.2782 16.3653V14.4504H48.4965V16.3653H38.2782Z" fill="white"/>
<path d="M51.6254 25.1603V6.17126H53.5641V25.1603H51.6254Z" fill="white"/>
<path d="M58.8832 31.4125L61.357 25.1464H60.9236L55.9611 11.2604H57.9081L62.0854 23.2212L66.4661 11.2604H68.4131L60.7735 31.4125H58.8799H58.8832Z" fill="white"/>
<path d="M88.6845 11.2604L84.5205 25.1602H82.2618L79.0163 14.6239L75.7708 25.1602H73.5271L69.3481 11.2604H71.2951L74.7023 23.1369L78.2445 11.2604H79.7864L83.3153 23.1369L86.7358 11.2604H88.6828H88.6845Z" fill="white"/>
<path d="M92.8217 6.17115V13.251C94.377 12.1069 96.1072 11.2604 97.7442 11.2604C100.043 11.2604 101.355 12.3202 101.355 14.8046V25.1602H99.5028V15.307C99.5028 13.688 98.801 13.0875 97.2324 13.0875C96.0022 13.0875 94.352 13.7516 92.8784 14.882V25.1585H91.0264V6.16943H92.8251L92.8217 6.17115Z" fill="white"/>
<path d="M110.379 25.0984C109.122 25.0984 108.001 24.7973 107.01 24.1951C106.02 23.5929 105.237 22.7654 104.663 21.7107C104.088 20.6578 103.802 19.4706 103.802 18.1545C103.802 16.8383 104.085 15.6838 104.65 14.6395C105.215 13.5952 105.985 12.7728 106.959 12.1689C107.931 11.5667 109.019 11.2656 110.223 11.2656C111.354 11.2656 112.358 11.5392 113.233 12.0846C114.108 12.63 114.798 13.3887 115.302 14.3574C115.805 15.326 116.059 16.4426 116.059 17.702C116.059 17.8534 116.05 18.0272 116.032 18.225C116.014 18.4229 115.979 18.6534 115.925 18.9166H105.129V17.2237H114.918L114.255 17.8448C114.272 16.8658 114.118 16.0245 113.79 15.3191C113.463 14.6137 112.995 14.0683 112.385 13.6812C111.775 13.2958 111.036 13.1031 110.169 13.1031C109.302 13.1031 108.481 13.3113 107.809 13.7242C107.137 14.1389 106.61 14.7169 106.23 15.4602C105.85 16.2034 105.66 17.0826 105.66 18.0994C105.66 19.1162 105.859 20.0092 106.257 20.7817C106.655 21.5541 107.212 22.1563 107.929 22.5882C108.646 23.0217 109.473 23.2368 110.409 23.2368C111.169 23.2368 111.868 23.0905 112.505 22.7998C113.141 22.509 113.68 22.0703 114.123 21.4871L115.317 22.786C114.733 23.5207 114.012 24.0901 113.155 24.4945C112.296 24.8988 111.373 25.1018 110.383 25.1018L110.379 25.0984Z" fill="white"/>
<path d="M124.652 25.0984C123.395 25.0984 122.273 24.7973 121.283 24.1951C120.292 23.5929 119.509 22.7654 118.936 21.7107C118.361 20.6578 118.074 19.4706 118.074 18.1545C118.074 16.8383 118.357 15.6838 118.922 14.6395C119.487 13.5952 120.257 12.7728 121.231 12.1689C122.203 11.5667 123.291 11.2656 124.495 11.2656C125.627 11.2656 126.63 11.5392 127.505 12.0846C128.38 12.63 129.071 13.3887 129.574 14.3574C130.077 15.326 130.331 16.4426 130.331 17.702C130.331 17.8534 130.322 18.0272 130.304 18.225C130.286 18.4229 130.251 18.6534 130.197 18.9166H119.401V17.2237H129.191L128.527 17.8448C128.544 16.8658 128.39 16.0245 128.062 15.3191C127.735 14.6137 127.267 14.0683 126.657 13.6812C126.047 13.2958 125.308 13.1031 124.441 13.1031C123.575 13.1031 122.753 13.3113 122.081 13.7242C121.409 14.1389 120.883 14.7169 120.503 15.4602C120.122 16.2034 119.932 17.0826 119.932 18.0994C119.932 19.1162 120.131 20.0092 120.529 20.7817C120.928 21.5541 121.484 22.1563 122.201 22.5882C122.918 23.0217 123.745 23.2368 124.682 23.2368C125.442 23.2368 126.14 23.0905 126.777 22.7998C127.414 22.509 127.952 22.0703 128.395 21.4871L129.589 22.786C129.006 23.5207 128.284 24.0901 127.427 24.4945C126.568 24.8988 125.645 25.1018 124.655 25.1018L124.652 25.0984Z" fill="white"/>
<path d="M135 6.17126V25.1603H133.148V6.17126H135Z" fill="white"/>
</g>
</g>
<defs>
<linearGradient id="paint0_linear_78_2" x1="81.0284" y1="38.0203" x2="9.76959" y2="-15.5768" gradientUnits="userSpaceOnUse">
<stop offset="0.1" stop-color="#AD9CFC"/>
<stop offset="1" stop-color="#1C55FB"/>
</linearGradient>
<linearGradient id="paint1_linear_78_2" x1="77.4844" y1="37.4182" x2="10.7528" y2="-12.6588" gradientUnits="userSpaceOnUse">
<stop offset="0.1" stop-color="#AD9CFC"/>
<stop offset="1" stop-color="#1C55FB"/>
</linearGradient>
<linearGradient id="paint2_linear_78_2" x1="74.022" y1="36.1914" x2="12.6419" y2="-10.7075" gradientUnits="userSpaceOnUse">
<stop offset="0.1" stop-color="#AD9CFC"/>
<stop offset="1" stop-color="#1C55FB"/>
</linearGradient>
<linearGradient id="paint3_linear_78_2" x1="70.6365" y1="34.8275" x2="14.8283" y2="-9.04384" gradientUnits="userSpaceOnUse">
<stop offset="0.1" stop-color="#AD9CFC"/>
<stop offset="1" stop-color="#1C55FB"/>
</linearGradient>
<linearGradient id="paint4_linear_78_2" x1="67.473" y1="33.4237" x2="17.284" y2="-7.68031" gradientUnits="userSpaceOnUse">
<stop offset="0.1" stop-color="#AD9CFC"/>
<stop offset="1" stop-color="#1C55FB"/>
</linearGradient>
<linearGradient id="paint5_linear_78_2" x1="-14.6891" y1="19.3037" x2="29.6177" y2="21.5925" gradientUnits="userSpaceOnUse">
<stop offset="0.1" stop-color="#D1C8FB"/>
<stop offset="1" stop-color="#1C55FB"/>
</linearGradient>
<linearGradient id="paint6_linear_78_2" x1="-13.385" y1="18.2931" x2="28.0389" y2="20.4281" gradientUnits="userSpaceOnUse">
<stop offset="0.1" stop-color="#D1C8FB"/>
<stop offset="1" stop-color="#1C55FB"/>
</linearGradient>
<linearGradient id="paint7_linear_78_2" x1="-12.1082" y1="17.4864" x2="26.4938" y2="19.5122" gradientUnits="userSpaceOnUse">
<stop offset="0.1" stop-color="#D1C8FB"/>
<stop offset="1" stop-color="#1C55FB"/>
</linearGradient>
<linearGradient id="paint8_linear_78_2" x1="-10.857" y1="16.7138" x2="24.9921" y2="18.6493" gradientUnits="userSpaceOnUse">
<stop offset="0.1" stop-color="#D1C8FB"/>
<stop offset="1" stop-color="#1C55FB"/>
</linearGradient>
<linearGradient id="paint9_linear_78_2" x1="-9.67798" y1="15.962" x2="23.6048" y2="17.8341" gradientUnits="userSpaceOnUse">
<stop offset="0.1" stop-color="#D1C8FB"/>
<stop offset="1" stop-color="#1C55FB"/>
</linearGradient>
</defs>
</svg>
